<svg xmlns:dc="http://purl.org/dc/elements/1.1/" xmlns:cc="http://creativecommons.org/ns#" xmlns:rdf="http://www.w3.org/1999/02/22-rdf-syntax-ns#" xmlns:svg="http://www.w3.org/2000/svg" xmlns="http://www.w3.org/2000/svg" version="1.1" viewBox="0 0 90 112.5" x="0px" y="0px"><title>Belgian_beer</title><description>Created with Sketch (http://www.bohemiancoding.com/sketch)</description><path d="m 67.375,43.96875 c -0.597162,0.01082 -1.456902,0.06346 -2.5,0.125 -2.086196,0.123077 -4.950747,0.316077 -8.09375,0.5625 -6.286007,0.492846 -13.670504,1.148721 -18.09375,1.5 -8.739737,0.694078 -17.5625,-1.625 -17.5625,-1.625 L 20.5,44.34375 20.5,45 c 0,12.39412 10.388605,22.5 23.5,22.5 13.123445,0 24.78125,-10.539518 24.78125,-22.96875 0,-0.258942 -0.1981,-0.390962 -0.28125,-0.4375 C 68.41685,44.047212 68.388958,44.01037 68.34375,44 68.25333,43.97926 68.153073,43.97457 68.0625,43.96875 c -0.181146,-0.01165 -0.388919,-0.0054 -0.6875,0 z m 0,1 c 0.156687,-0.0028 0.231139,-0.0015 0.34375,0 C 67.441224,56.578296 56.427742,66.5 44,66.5 31.618153,66.5 21.895466,57.150162 21.5625,45.59375 c 0.998647,0.254504 8.772169,2.230815 17.1875,1.5625 4.430268,-0.351836 11.813479,-1.007604 18.09375,-1.5 3.140135,-0.246198 6.020937,-0.440213 8.09375,-0.5625 1.036407,-0.06114 1.867729,-0.114676 2.4375,-0.125 z" style="text-indent:0;text-transform:none;direction:ltr;block-progression:tb;baseline-shift:baseline;color:#000000;enable-background:accumulate;" fill="#2a2e33" fill-opacity="1" stroke="none" marker="none" visibility="visible" display="inline" overflow="visible"/><path d="m 25.375,2.5 0.1875,0.65625 c 0.951258,3.202473 1.46875,6.7287414 1.46875,10.46875 0,8.278739 -2.600474,15.663189 -6.59375,20.34375 L 20.40625,34 20.375,34.03125 c -1.841534,3.407431 -2.875,7.292066 -2.875,11.375 0,12.731985 10.106167,23.164955 23.15625,24.8125 L 40.84375,70.5 c 0.624542,1.052305 1.0625,2.906235 1.0625,5.03125 0,1.786033 -0.301994,3.404617 -0.78125,4.5 L 41,80.3125 l 0.1875,0.21875 c 0.03594,0.04627 0.02909,0.07618 0.03125,0.09375 0.004,0.0329 -0.006,0.111003 -0.15625,0.28125 -0.150209,0.170247 -0.424918,0.399156 -0.8125,0.625 -0.775165,0.451688 -1.98551,0.934847 -3.5,1.40625 -3.028981,0.942805 -7.292792,1.820603 -12.0625,2.40625 -0.481757,0.05915 -0.964928,0.136607 -1.4375,0.1875 l -0.21875,0 -0.125,0.1875 c -0.401535,0.529979 -0.625,1.128082 -0.625,1.75 l 0,0.5 0.5,0 41.34375,0 0.5,0 0,-0.5 c 0,-0.767517 -0.380732,-1.500581 -0.96875,-2.125 l -0.125,-0.125 L 63.375,85.1875 C 58.676721,84.555545 54.502037,83.675288 51.5625,82.75 c -1.469768,-0.462644 -2.627935,-0.939308 -3.375,-1.375 -0.373533,-0.217846 -0.638446,-0.432193 -0.78125,-0.59375 -0.142804,-0.161557 -0.159136,-0.226496 -0.15625,-0.25 0.0014,-0.01126 0.0072,-0.0284 0.03125,-0.0625 L 47.4375,80.25 47.34375,80 c -0.467878,-1.094282 -0.78125,-2.708937 -0.78125,-4.46875 0,-2.126066 0.468775,-3.979252 1.09375,-5.03125 l 0.15625,-0.28125 c 13.055837,-1.642677 23.15625,-12.076652 23.15625,-24.8125 0,-4.082934 -1.033466,-7.967569 -2.875,-11.375 L 68.0625,34 68.03125,33.96875 C 64.037974,29.288189 61.4375,21.903739 61.4375,13.625 c 0,-3.7400086 0.517492,-7.266277 1.46875,-10.46875 L 63.09375,2.5 l -0.65625,0 -36.40625,0 -0.65625,0 z m 1.3125,1 35.125,0 c -0.865339,3.1301113 -1.375,6.533858 -1.375,10.125 0,8.451224 2.624025,15.995214 6.78125,20.90625 1.766282,3.268189 2.75,6.961568 2.75,10.875 0,12.494985 -10.126972,22.762824 -23.15625,23.96875 l -0.90625,0.09375 0.53125,0.71875 c 0.03747,0.04914 0.08869,0.104068 0.125,0.15625 l 0.0625,0.0625 c -0.004,0.008 0.004,0.02319 0,0.03125 -0.644084,1.295592 -1.0625,3.044025 -1.0625,5.09375 0,1.790398 0.315193,3.379906 0.8125,4.625 -0.03613,0.08815 -0.113164,0.153598 -0.125,0.25 -0.04836,0.393839 0.151823,0.774662 0.40625,1.0625 0.254427,0.287838 0.601084,0.530375 1.03125,0.78125 0.860332,0.50175 2.051056,0.992987 3.5625,1.46875 2.966531,0.933785 7.115282,1.802232 11.75,2.4375 0.237843,0.276834 0.289715,0.54969 0.375,0.8125 l -39.90625,0 c 0.05281,-0.162968 0.07649,-0.330685 0.1875,-0.5 0.385613,-0.04267 0.764823,-0.07694 1.15625,-0.125 4.818398,-0.591625 9.135665,-1.468127 12.25,-2.4375 1.557168,-0.484686 2.79825,-0.981835 3.6875,-1.5 0.444625,-0.259082 0.800568,-0.515626 1.0625,-0.8125 0.261932,-0.296874 0.45564,-0.691498 0.40625,-1.09375 -0.01317,-0.10726 -0.08274,-0.184249 -0.125,-0.28125 0.507124,-1.250085 0.8125,-2.878491 0.8125,-4.6875 0,-2.048712 -0.419026,-3.79827 -1.0625,-5.09375 l 0,-0.03125 0.09375,-0.09375 c 0.03318,-0.05392 0.05919,-0.105684 0.09375,-0.15625 L 42.5,69.46875 41.65625,69.375 C 28.632672,68.163923 18.5,57.897445 18.5,45.40625 c 0,-3.913432 0.983718,-7.606811 2.75,-10.875 4.157225,-4.911036 6.78125,-12.455026 6.78125,-20.90625 0,-3.590859 -0.478541,-6.995089 -1.34375,-10.125 z" style="text-indent:0;text-transform:none;direction:ltr;block-progression:tb;baseline-shift:baseline;color:#000000;enable-background:accumulate;" fill="#2a2e33" fill-opacity="1" stroke="none" marker="none" visibility="visible" display="inline" overflow="visible"/><text x="0" y="105" fill="#000000" font-size="5px" font-weight="bold" font-family="'Helvetica Neue', Helvetica, Arial-Unicode, Arial, Sans-serif">Created by 0gust1</text><text x="0" y="110" fill="#000000" font-size="5px" font-weight="bold" font-family="'Helvetica Neue', Helvetica, Arial-Unicode, Arial, Sans-serif">from the Noun Project</text></svg>