<?xml version="1.0" encoding="utf-8"?>
<!-- Generator: Adobe Illustrator 17.0.2, SVG Export Plug-In . SVG Version: 6.00 Build 0)  -->
<!DOCTYPE svg PUBLIC "-//W3C//DTD SVG 1.1//EN" "http://www.w3.org/Graphics/SVG/1.1/DTD/svg11.dtd">
<svg version="1.1"
	 id="Layer_1" xmlns:svg="http://www.w3.org/2000/svg" xmlns:cc="http://creativecommons.org/ns#" xmlns:dc="http://purl.org/dc/elements/1.1/" xmlns:rdf="http://www.w3.org/1999/02/22-rdf-syntax-ns#"
	 xmlns="http://www.w3.org/2000/svg" xmlns:xlink="http://www.w3.org/1999/xlink" x="0px" y="0px" width="1024px" height="1024px"
	 viewBox="-1286 -24 1024 1024" enable-background="new -1286 -24 1024 1024" xml:space="preserve">
<circle fill="#091700" cx="512" cy="500" r="500"/>
<title>Belgian_beer</title>
<description>Created with Sketch (http://www.bohemiancoding.com/sketch)</description>
<g>
	<path fill="#FDFEFF" d="M344.361,120.139l1.667,5.833c8.456,28.466,13.056,59.811,13.056,93.056
		c0,73.589-23.115,139.228-58.611,180.833l-0.278,0.278l-0.278,0.278c-16.369,30.288-25.556,64.818-25.556,101.111
		c0,113.173,89.833,205.911,205.833,220.556l1.667,2.5c5.551,9.354,9.444,25.833,9.444,44.722c0,15.876-2.684,30.263-6.944,40
		l-1.111,2.5l1.667,1.944c0.319,0.411,0.259,0.677,0.278,0.833c0.036,0.292-0.053,0.987-1.389,2.5
		c-1.335,1.513-3.777,3.548-7.222,5.556c-6.89,4.015-17.649,8.31-31.111,12.5c-26.924,8.38-64.825,16.183-107.222,21.389
		c-4.282,0.526-8.577,1.214-12.778,1.667h-1.944l-1.111,1.667c-3.569,4.711-5.556,10.027-5.556,15.556v4.444h4.444h367.5h4.444
		v-4.444c0-6.822-3.384-13.339-8.611-18.889l-1.111-1.111l-1.389-0.278c-41.763-5.617-78.871-13.442-105-21.667
		c-13.065-4.112-23.359-8.349-30-12.222c-3.32-1.936-5.675-3.842-6.944-5.278s-1.415-2.013-1.389-2.222
		c0.012-0.1,0.064-0.252,0.278-0.556l1.389-1.944l-0.833-2.222c-4.159-9.727-6.944-24.079-6.944-39.722
		c0-18.898,4.167-35.371,9.722-44.722l1.389-2.5c116.052-14.602,205.833-107.348,205.833-220.556
		c0-36.293-9.186-70.823-25.556-101.111l-0.278-0.278l-0.278-0.278c-35.496-41.605-58.611-107.245-58.611-180.833
		c0-33.245,4.6-64.589,13.056-93.056l1.667-5.833h-5.833H350.194H344.361z M356.028,129.028H668.25
		c-7.692,27.823-12.222,58.079-12.222,90c0,75.122,23.325,142.18,60.278,185.833c15.7,29.051,24.444,61.881,24.444,96.667
		c0,111.067-90.018,202.336-205.833,213.056l-8.056,0.833l4.722,6.389c0.333,0.437,0.788,0.925,1.111,1.389l0.556,0.556
		c-0.036,0.071,0.036,0.206,0,0.278c-5.725,11.516-9.444,27.058-9.444,45.278c0,15.915,2.802,30.044,7.222,41.111
		c-0.321,0.784-1.006,1.365-1.111,2.222c-0.43,3.501,1.349,6.886,3.611,9.444s5.343,4.714,9.167,6.944
		c7.647,4.46,18.232,8.827,31.667,13.056c26.369,8.3,63.247,16.02,104.444,21.667c2.114,2.461,2.575,4.886,3.333,7.222H327.417
		c0.469-1.449,0.68-2.939,1.667-4.444c3.428-0.379,6.798-0.684,10.278-1.111c42.83-5.259,81.206-13.05,108.889-21.667
		c13.841-4.308,24.873-8.727,32.778-13.333c3.952-2.303,7.116-4.583,9.444-7.222c2.328-2.639,4.05-6.147,3.611-9.722
		c-0.117-0.953-0.735-1.638-1.111-2.5c4.508-11.112,7.222-25.587,7.222-41.667c0-18.211-3.725-33.762-9.444-45.278v-0.278
		l0.833-0.833c0.295-0.479,0.526-0.939,0.833-1.389l4.167-6.111l-7.5-0.833C373.318,703.818,283.25,612.561,283.25,501.528
		c0-34.786,8.744-67.616,24.444-96.667c36.953-43.654,60.278-110.711,60.278-185.833
		C367.972,187.109,363.719,156.849,356.028,129.028z"/>
	<path fill="#3A2407" d="M727.694,479.861c-0.739-0.414-0.987-0.741-1.389-0.833c-0.804-0.184-1.695-0.226-2.5-0.278
		c-1.61-0.104-3.457-0.048-6.111,0c-5.308,0.096-12.95,0.564-22.222,1.111c-18.544,1.094-44.007,2.81-71.944,5
		c-55.876,4.381-121.516,10.211-160.833,13.333c-77.687,6.17-156.111-14.444-156.111-14.444l-5.556-1.667v5.833
		c0,110.17,92.343,200,208.889,200c116.653,0,220.278-93.685,220.278-204.167C730.194,481.448,728.434,480.275,727.694,479.861z"/>
</g>
<g>
	<circle fill="#091700" cx="-774" cy="488" r="500"/>
	<g>
		<path fill="#FDFEFF" d="M-941.639,108.139l1.667,5.833c8.456,28.466,13.056,59.811,13.056,93.056
			c0,73.589-23.115,139.228-58.611,180.833l-0.278,0.278l-0.278,0.278c-16.369,30.288-25.556,64.818-25.556,101.111
			c0,113.173,89.833,205.911,205.833,220.556l1.667,2.5c5.552,9.354,9.444,25.833,9.444,44.722c0,15.876-2.684,30.263-6.944,40
			l-1.111,2.5l1.667,1.944c0.319,0.411,0.259,0.677,0.278,0.833c0.036,0.292-0.053,0.987-1.389,2.5
			c-1.335,1.513-3.777,3.548-7.222,5.556c-6.89,4.015-17.649,8.31-31.111,12.5c-26.924,8.38-64.825,16.183-107.222,21.389
			c-4.282,0.526-8.577,1.214-12.778,1.667h-1.944l-1.111,1.667c-3.569,4.711-5.556,10.027-5.556,15.556v4.444h4.444h367.5h4.444
			v-4.444c0-6.822-3.384-13.339-8.611-18.889l-1.111-1.111l-1.389-0.278c-41.763-5.617-78.871-13.442-105-21.667
			c-13.065-4.112-23.359-8.349-30-12.222c-3.32-1.936-5.675-3.842-6.944-5.278s-1.415-2.013-1.389-2.222
			c0.012-0.1,0.064-0.252,0.278-0.556l1.389-1.944l-0.833-2.222c-4.159-9.727-6.944-24.079-6.944-39.722
			c0-18.898,4.167-35.371,9.722-44.722l1.389-2.5c116.052-14.602,205.833-107.348,205.833-220.556
			c0-36.293-9.186-70.823-25.556-101.111l-0.278-0.278l-0.278-0.278c-35.496-41.605-58.611-107.245-58.611-180.833
			c0-33.245,4.6-64.589,13.056-93.056l1.667-5.833h-5.833h-323.611H-941.639z M-929.972,117.028h312.222
			c-7.692,27.823-12.222,58.079-12.222,90c0,75.122,23.325,142.18,60.278,185.833c15.7,29.051,24.444,61.881,24.444,96.667
			c0,111.067-90.018,202.336-205.833,213.056l-8.056,0.833l4.722,6.389c0.333,0.437,0.788,0.925,1.111,1.389l0.556,0.556
			c-0.036,0.071,0.036,0.206,0,0.278c-5.725,11.516-9.444,27.058-9.444,45.278c0,15.915,2.802,30.044,7.222,41.111
			c-0.321,0.784-1.006,1.365-1.111,2.222c-0.43,3.501,1.349,6.886,3.611,9.444s5.343,4.714,9.167,6.944
			c7.647,4.46,18.232,8.827,31.667,13.056c26.369,8.3,63.247,16.02,104.444,21.667c2.114,2.461,2.575,4.886,3.333,7.222h-354.722
			c0.469-1.449,0.68-2.939,1.667-4.444c3.428-0.379,6.798-0.684,10.278-1.111c42.83-5.259,81.206-13.05,108.889-21.667
			c13.841-4.308,24.873-8.727,32.778-13.333c3.952-2.303,7.116-4.583,9.444-7.222s4.05-6.147,3.611-9.722
			c-0.117-0.953-0.735-1.638-1.111-2.5c4.508-11.112,7.222-25.587,7.222-41.667c0-18.211-3.725-33.762-9.444-45.278v-0.278
			l0.833-0.833c0.295-0.479,0.526-0.939,0.833-1.389l4.167-6.111l-7.5-0.833c-115.765-10.765-205.833-102.023-205.833-213.056
			c0-34.786,8.744-67.616,24.444-96.667c36.953-43.654,60.278-110.711,60.278-185.833
			C-918.028,175.109-922.281,144.849-929.972,117.028z"/>
		<path fill="#3A2407" d="M-558.306,467.861c-0.739-0.414-0.987-0.741-1.389-0.833c-0.804-0.184-1.695-0.226-2.5-0.278
			c-1.61-0.104-3.457-0.048-6.111,0c-5.308,0.096-12.95,0.564-22.222,1.111c-18.544,1.094-44.007,2.81-71.944,5
			c-55.876,4.381-121.516,10.211-160.833,13.333c-77.687,6.17-156.111-14.444-156.111-14.444l-5.556-1.667v5.833
			c0,110.17,92.343,200,208.889,200c116.653,0,220.278-93.685,220.278-204.167C-555.806,469.448-557.566,468.275-558.306,467.861z"
			/>
	</g>
</g>
<circle opacity="0.1" fill="#091700" cx="-774" cy="1586" r="500"/>
<path fill="#3A2407" d="M-602.472,1941.417l-1.389-0.278c-41.763-5.617-78.871-13.442-105-21.667
	c-13.065-4.112-23.359-8.349-30-12.222c-3.32-1.937-5.675-3.842-6.944-5.278c-1.269-1.436-1.415-2.013-1.389-2.222
	c0.012-0.1,0.064-0.252,0.278-0.556l1.389-1.944l-0.833-2.222c-4.159-9.727-6.944-24.08-6.944-39.722
	c0-18.898,4.167-35.371,9.722-44.722l1.389-2.5c116.052-14.602,205.833-107.348,205.833-220.555
	c0-36.293-9.186-70.823-25.556-101.111l-0.278-0.278l-0.278-0.278c-35.496-41.605-58.611-107.245-58.611-180.833
	c0-33.245,4.6-64.589,13.056-93.056l1.667-5.833h-5.833h-323.611h-5.833l1.667,5.833c8.456,28.466,13.056,59.811,13.056,93.056
	c0,73.589-23.115,139.228-58.611,180.833l-0.278,0.278l-0.278,0.278c-16.369,30.288-25.556,64.818-25.556,101.111
	c0,113.173,89.833,205.911,205.833,220.555l1.667,2.5c5.551,9.354,9.444,25.833,9.444,44.722c0,15.876-2.684,30.263-6.944,40
	l-1.111,2.5l1.667,1.944c0.319,0.411,0.259,0.677,0.278,0.833c0.036,0.292-0.053,0.987-1.389,2.5
	c-1.335,1.513-3.777,3.548-7.222,5.556c-6.89,4.015-17.649,8.31-31.111,12.5c-26.924,8.38-64.825,16.183-107.222,21.389
	c-4.282,0.526-8.577,1.214-12.778,1.667h-1.944l-1.111,1.667c-3.569,4.711-5.556,10.027-5.556,15.556v4.444h4.444h367.5h4.444
	v-4.444c0-6.823-3.384-13.339-8.611-18.889L-602.472,1941.417z"/>
<path fill="#3A2407" d="M-602.472,3148.856l-1.389-0.278c-41.763-5.618-78.871-13.442-105-21.667
	c-13.065-4.113-23.359-8.349-30-12.222c-3.32-1.936-5.675-3.842-6.944-5.278c-1.269-1.436-1.415-2.013-1.389-2.222
	c0.012-0.1,0.064-0.252,0.278-0.555l1.389-1.945l-0.833-2.222c-4.159-9.727-6.944-24.079-6.944-39.722
	c0-18.898,4.167-35.371,9.722-44.722l1.389-2.5c116.052-14.602,205.833-107.348,205.833-220.556
	c0-36.293-9.186-70.823-25.556-101.111l-0.278-0.278l-0.278-0.278c-35.496-41.605-58.611-107.245-58.611-180.833
	c0-33.245,4.6-64.589,13.056-93.056l1.667-5.833h-5.833h-323.611h-5.833l1.667,5.833c8.456,28.467,13.056,59.811,13.056,93.056
	c0,73.589-23.115,139.229-58.611,180.833l-0.278,0.278l-0.278,0.278c-16.369,30.288-25.556,64.818-25.556,101.111
	c0,113.173,89.833,205.911,205.833,220.556l1.667,2.5c5.551,9.354,9.444,25.833,9.444,44.722c0,15.876-2.684,30.263-6.944,40
	l-1.111,2.5l1.667,1.944c0.319,0.411,0.259,0.677,0.278,0.833c0.036,0.292-0.053,0.987-1.389,2.5
	c-1.335,1.513-3.777,3.548-7.222,5.556c-6.89,4.015-17.649,8.31-31.111,12.5c-26.924,8.38-64.825,16.183-107.222,21.389
	c-4.282,0.526-8.577,1.214-12.778,1.667h-1.944l-1.111,1.667c-3.569,4.711-5.556,10.027-5.556,15.555v4.445h4.444h367.5h4.444
	v-4.445c0-6.822-3.384-13.338-8.611-18.889L-602.472,3148.856z"/>
<path fill="#3A2407" d="M-274.472,2940.856l-1.389-0.278c-41.763-5.618-78.871-13.442-105-21.667
	c-13.065-4.113-23.359-8.349-30-12.222c-3.32-1.936-5.675-3.842-6.944-5.278c-1.269-1.436-1.415-2.013-1.389-2.222
	c0.012-0.1,0.064-0.252,0.278-0.555l1.389-1.945l-0.833-2.222c-4.159-9.727-6.944-24.079-6.944-39.722
	c0-18.898,4.167-35.371,9.722-44.722l1.389-2.5c116.052-14.602,205.833-107.348,205.833-220.556
	c0-36.293-9.186-70.823-25.556-101.111l-0.278-0.278l-0.278-0.278c-35.496-41.605-58.611-107.245-58.611-180.833
	c0-33.245,4.6-64.589,13.056-93.056l1.667-5.833h-5.833h-323.611h-5.833l1.667,5.833c8.456,28.467,13.056,59.811,13.056,93.056
	c0,73.589-23.115,139.229-58.611,180.833l-0.278,0.278l-0.278,0.278c-16.369,30.288-25.556,64.818-25.556,101.111
	c0,113.173,89.833,205.911,205.833,220.556l1.667,2.5c5.551,9.354,9.444,25.833,9.444,44.722c0,15.876-2.684,30.263-6.944,40
	l-1.111,2.5l1.667,1.944c0.319,0.411,0.259,0.677,0.278,0.833c0.036,0.292-0.053,0.987-1.389,2.5
	c-1.335,1.513-3.777,3.548-7.222,5.556c-6.89,4.015-17.649,8.31-31.111,12.5c-26.924,8.38-64.825,16.183-107.222,21.389
	c-4.282,0.526-8.577,1.214-12.778,1.667h-1.944l-1.111,1.667c-3.569,4.711-5.556,10.027-5.556,15.555v4.445h4.444h367.5h4.444
	v-4.445c0-6.822-3.384-13.338-8.611-18.889L-274.472,2940.856z"/>
<path fill="#3A2407" d="M-803.3,2995.681c-51.938-6.557-99.66-30.428-134.376-67.215c-34.798-36.872-53.962-84.283-53.962-133.499
	c0-3.587,0.113-7.17,0.314-10.747l-4.006-1.202v6.088c0,109.688,87.707,200.054,201.379,208.144l-0.284-0.426L-803.3,2995.681z"/>
<path fill="#3A2407" d="M-547.417,2784.758c0-2.402-1.838-3.627-2.609-4.059c-0.771-0.432-1.03-0.774-1.45-0.87
	c-0.839-0.192-1.769-0.236-2.609-0.29c-0.878-0.056-1.827-0.067-2.924-0.058c0.417,5.147,0.648,10.312,0.648,15.485
	c0,48.796-18.823,95.801-53.016,132.524C-571.354,2889.361-547.417,2839.001-547.417,2784.758z"/>
<path fill="#FFFFFF" d="M-826.602,1592.394c41.035-3.259,109.543-9.344,167.859-13.916c29.158-2.286,55.733-4.076,75.087-5.218
	c9.677-0.571,17.653-1.059,23.193-1.16c1.323-0.024,2.45-0.049,3.454-0.058c-2.093-25.818-9.371-51.121-21.407-74.059
	c-39.839-47.219-62.668-117.467-62.668-192.956c0-27.251,8.912-73.697,14.673-98.889h-295.179
	c5.761,25.191,14.673,71.638,14.673,98.889c0,75.489-22.829,145.737-62.668,192.956c-12.771,24.34-20.196,51.342-21.74,78.797
	l1.792,0.538C-989.532,1577.319-907.682,1598.833-826.602,1592.394z"/>
<path fill="#3A2407" d="M-793.951,2997.251l6.744,10.114l0.268,0.452c7.782,13.112,12.245,33.133,12.245,54.929
	c0,15.575-2.229,30.275-6.335,42.147c0.089,0.617,0.153,1.257,0.188,1.917c0.277,4.406-0.748,10.589-6.36,16.95
	c-2.998,3.396-7.197,6.714-12.145,9.598c-8.187,4.771-20.043,9.589-35.237,14.317c-6.221,1.936-12.896,3.815-19.958,5.626h166.072
	c-9.538-2.344-18.394-4.793-26.397-7.312c-14.457-4.552-25.92-9.271-34.07-14.023c-3.412-1.99-8.238-5.22-11.857-9.312
	c-4.928-5.579-7.03-11.608-6.25-17.901c0.014-0.111,0.028-0.223,0.044-0.333c-4.038-11.923-6.304-26.732-6.304-41.674
	c0-21.051,4.619-41.451,12.367-54.664l6.187-11.136l10.061-1.266c51.95-6.536,99.675-30.396,134.386-67.183
	c0.314-0.332,0.616-0.672,0.927-1.006c-42.805,42.926-103.463,70.352-167.939,70.352
	C-782.918,2997.844-788.464,2997.641-793.951,2997.251z"/>
</svg>
